# xmcd
#
# Track frame offsets:
#   150
#   16212
#   33100
#   46192
#   62506
#   78899
#   99888
#   116858
#   131838
#   145557
#   158132
#   174002
#   188240
#   202933
#   220240
#   236297
#   249967
#   262542
#   278176
#   294569
#   310134
#
# Disc length: 4304 seconds
#
# Revision: 0
# Processed by: cddbd v1.5.1PL0 Copyright (c) Steve Scherf et al.
# Submitted via: Media_Universe 3.0
#
DISCID=0810ce15
DTITLE=Lorrie Morgan - Reflections and Super Hits
DYEAR=1900
DGENRE=Country
TTITLE0=Five Minutes
TTITLE1=Dear Me
TTITLE2=Except For Mondays
TTITLE3=A Picture Of Me (without you)
TTITLE4=Watch Me
TTITLE5=Something In Red
TTITLE6=Back In Your Arms Again
TTITLE7=I Didnt Know My Own Strength
TTITLE8=Standing Tall
TTITLE9=What Part Of No
TTITLE10=Til A Tear Becomes A Rose
TTITLE11=We Both Walk
TTITLE12=Out Of Your Shoes
TTITLE13=Half Enough
TTITLE14=Five Minutes
TTITLE15=Gonna Leave the Light On
TTITLE16=What Part Of No
TTITLE17=He Talks To Me
TTITLE18=Watch Me
TTITLE19=Good As I Was To You
TTITLE20=By My Side
EXTD=
EXTT0=
EXTT1=
EXTT2=
EXTT3=
EXTT4=
EXTT5=
EXTT6=
EXTT7=
EXTT8=
EXTT9=
EXTT10=
EXTT11=
EXTT12=
EXTT13=
EXTT14=
EXTT15=
EXTT16=
EXTT17=
EXTT18=
EXTT19=
EXTT20=
PLAYORDER=
